<?xml version="1.0" encoding="UTF-8" standalone="no" ?>
<!DOCTYPE svg PUBLIC "-//W3C//DTD SVG 1.1//EN" "http://www.w3.org/Graphics/SVG/1.1/DTD/svg11.dtd">
<svg xmlns="http://www.w3.org/2000/svg" xmlns:xlink="http://www.w3.org/1999/xlink" version="1.1" width="150" height="50" viewBox="0 0 150 50" xml:space="preserve">
<desc>Created with Fabric.js 5.3.0</desc>
<defs>
</defs>
<g transform="matrix(1.4385681014 0 0 1.4385681014 77.7736343325 25)" id="DFtAsjIAg16tHI_fvOBSu"  >
<path style="stroke: none; stroke-width: 1; stroke-dasharray: none; stroke-linecap: butt; stroke-dashoffset: 0; stroke-linejoin: miter; stroke-miterlimit: 4; fill: rgb(0,0,0); fill-rule: evenodd; opacity: 1;" vector-effect="non-scaling-stroke"  transform=" translate(0, 0)" d="M 9.883 0.5 L 2.355999999999999 6.735 L 2.999999999999999 7.5 L 12 -0.020999999999999908 L 3 -7.5 L 2.355 -6.736 L 9.884 -0.5 L -12 -0.5 L -12 0.5 z" stroke-linecap="round" />
</g>
<g transform="matrix(0.4008103663 0 0 0.4008103663 26.8909248097 25)" id="NI-x14vCCMrZiYo3QPYuL"  >
<path style="stroke: none; stroke-width: 1; stroke-dasharray: none; stroke-linecap: butt; stroke-dashoffset: 0; stroke-linejoin: miter; stroke-miterlimit: 4; fill: rgb(0,0,0); fill-rule: nonzero; opacity: 1;" vector-effect="non-scaling-stroke"  transform=" translate(-61.44, -48.3328794887)" d="M 19.05 50.25 C 19.88 50.24 20.67 50.48 21.330000000000002 50.9 L 21.310000000000002 49.78 C 21.290000000000003 48.63 21.750000000000004 47.59 22.500000000000004 46.83 C 23.250000000000004 46.07 24.280000000000005 45.589999999999996 25.430000000000003 45.57 C 25.430000000000003 45.57 25.430000000000003 45.57 25.440000000000005 45.57 C 26.290000000000006 45.56 27.120000000000005 45.81 27.830000000000005 46.29 L 27.820000000000004 45.39 C 27.800000000000004 44.24 28.260000000000005 43.2 29.010000000000005 42.44 C 29.760000000000005 41.68 30.790000000000006 41.199999999999996 31.940000000000005 41.18 C 33.09 41.160000000000004 34.13 41.62 34.89000000000001 42.37 C 35.650000000000006 43.12 36.13000000000001 44.15 36.150000000000006 45.3 L 36.150000000000006 46.209999999999994 C 36.81 45.74999999999999 37.61000000000001 45.46999999999999 38.470000000000006 45.459999999999994 C 39.620000000000005 45.43999999999999 40.660000000000004 45.89999999999999 41.42000000000001 46.64999999999999 C 42.18000000000001 47.39999999999999 42.66000000000001 48.42999999999999 42.68000000000001 49.57999999999999 L 42.92000000000001 64.77999999999999 C 42.98000000000001 65.12999999999998 43.01000000000001 65.46999999999998 43.01000000000001 65.82 L 43.01000000000001 65.82 L 43.030000000000015 66.97999999999999 L 43.13000000000002 66.88 C 43.84000000000002 66.19999999999999 44.530000000000015 65.49 44.79000000000001 65.22 C 46.54000000000001 63.42 48.45000000000002 63.019999999999996 49.97000000000001 63.49 C 50.65000000000001 63.7 51.26000000000001 64.08 51.73000000000001 64.59 C 52.20000000000001 65.09 52.55000000000001 65.73 52.73000000000001 66.43 C 53.15000000000001 68.11000000000001 52.64000000000001 70.23 50.57000000000001 72.12 C 47.190000000000005 75.5 45.010000000000005 79.39 40.93000000000001 82.4 L 41.06000000000001 83.53 L 41.15000000000001 83.53 L 42.16000000000001 91.42 L 17.08 91.42 L 18.22 83.53 L 18.34 83.53 L 18.51 82.31 C 17.21 79.52 15.270000000000001 77.01 15.230000000000002 73.95 C 15.130000000000003 65.93 15.040000000000003 62.49 14.940000000000003 54.47 C 14.920000000000003 53.32 15.380000000000003 52.28 16.130000000000003 51.519999999999996 C 16.87 50.75 17.9 50.27 19.05 50.25 L 19.05 50.25 L 19.05 50.25 L 19.05 50.25 z M 95.03 55.5 C 94.2 55.49 93.41 55.73 92.75 56.15 L 92.77 55.03 C 92.78999999999999 53.88 92.33 52.84 91.58 52.08 C 90.83 51.32 89.8 50.839999999999996 88.64999999999999 50.82 C 88.64999999999999 50.82 88.64999999999999 50.82 88.63999999999999 50.82 C 87.78999999999999 50.81 86.95999999999998 51.06 86.24999999999999 51.54 L 86.25999999999999 50.64 C 86.27999999999999 49.49 85.82 48.45 85.07 47.69 C 84.32 46.92999999999999 83.28999999999999 46.449999999999996 82.13999999999999 46.43 C 80.98999999999998 46.41 79.94999999999999 46.87 79.18999999999998 47.62 C 78.42999999999998 48.36 77.94999999999999 49.4 77.92999999999998 50.55 L 77.92999999999998 51.459999999999994 C 77.26999999999998 50.99999999999999 76.46999999999998 50.71999999999999 75.60999999999999 50.709999999999994 C 74.45999999999998 50.68999999999999 73.41999999999999 51.14999999999999 72.65999999999998 51.89999999999999 C 71.89999999999998 52.64999999999999 71.41999999999999 53.67999999999999 71.39999999999998 54.82999999999999 L 71.15999999999998 70.02999999999999 C 71.10999999999999 70.36999999999999 71.06999999999998 70.71999999999998 71.06999999999998 71.07 L 71.06999999999998 71.07 L 71.04999999999998 72.22999999999999 L 70.94999999999999 72.13 C 70.24 71.44999999999999 69.54999999999998 70.74 69.28999999999999 70.47 C 67.53999999999999 68.67 65.63 68.27 64.10999999999999 68.73 C 63.429999999999986 68.94 62.819999999999986 69.32000000000001 62.34999999999999 69.83 C 61.87999999999999 70.33 61.52999999999999 70.97 61.34999999999999 71.67 C 60.929999999999986 73.35000000000001 61.43999999999999 75.47 63.50999999999999 77.36 C 66.88999999999999 80.74 69.07 84.63 73.14999999999999 87.64 L 73.02 88.77 L 72.92999999999999 88.77 L 71.91999999999999 96.66 L 96.96999999999998 96.66 L 95.83999999999999 88.77 L 95.71999999999998 88.77 L 95.54999999999998 87.53999999999999 C 96.84999999999998 84.74999999999999 98.78999999999998 82.24 98.82999999999998 79.17999999999999 C 98.92999999999998 71.16 99.02999999999999 67.72 99.11999999999999 59.69999999999999 C 99.13999999999999 58.54999999999999 98.67999999999999 57.50999999999999 97.92999999999999 56.749999999999986 C 97.21 55.99 96.18 55.51 95.03 55.5 L 95.03 55.5 L 95.03 55.5 L 95.03 55.5 z M 95.06 12.24 C 95.14 10.69 95.38 9.15 95.61 7.58 C 96.11 4.28 96.62 5.7 95.5 2.5600000000000005 C 95.14 1.5700000000000005 95.66 0.47000000000000064 96.65 0.12000000000000055 C 97.64 -0.23999999999999944 98.74000000000001 0.2800000000000006 99.09 1.2700000000000005 C 100.55 5.340000000000001 99.97 4.390000000000001 99.4 8.15 C 99.19000000000001 9.540000000000001 98.98 10.91 98.9 12.24 L 98.9 12.24 C 99.89 12.24 100.79 12.64 101.44000000000001 13.290000000000001 C 101.49000000000001 13.340000000000002 101.54 13.39 101.58000000000001 13.450000000000001 C 102.15 14.090000000000002 102.49000000000001 14.920000000000002 102.49000000000001 15.830000000000002 L 102.49000000000001 16.020000000000003 L 113.82000000000001 16.020000000000003 C 116.31 16.020000000000003 118.58000000000001 17.040000000000003 120.22000000000001 18.680000000000003 C 121.86000000000001 20.320000000000004 122.88000000000001 22.590000000000003 122.88000000000001 25.080000000000005 L 122.88000000000001 66.43 C 122.88000000000001 68.92 121.86000000000001 71.19000000000001 120.22000000000001 72.83000000000001 C 118.58000000000001 74.47000000000001 116.31000000000002 75.49000000000001 113.82000000000001 75.49000000000001 L 102.18 75.49000000000001 C 102.2 74.12 102.22000000000001 72.87 102.24000000000001 71.67000000000002 L 113.82000000000001 71.67000000000002 C 115.26 71.67000000000002 116.56 71.08000000000001 117.51 70.13000000000001 C 118.46000000000001 69.18 119.05000000000001 67.88000000000001 119.05000000000001 66.44000000000001 L 119.05000000000001 25.09 C 119.05000000000001 23.65 118.46000000000001 22.35 117.51 21.4 C 116.56 20.45 115.26 19.86 113.82000000000001 19.86 L 100.58000000000001 19.86 C 99.52000000000001 19.86 98.66000000000001 19 98.66000000000001 17.939999999999998 L 98.66000000000001 16.069999999999997 L 94.17000000000002 16.069999999999997 L 94.17000000000002 17.939999999999998 C 94.17000000000002 18.999999999999996 93.31000000000002 19.86 92.25000000000001 19.86 L 92.25000000000001 19.86 L 9.06 19.86 C 7.620000000000001 19.86 6.32 20.45 5.370000000000001 21.4 C 4.420000000000002 22.349999999999998 3.830000000000001 23.65 3.830000000000001 25.09 L 3.830000000000001 66.44 C 3.830000000000001 67.88 4.420000000000001 69.17999999999999 5.370000000000001 70.13 C 6.320000000000001 71.08 7.620000000000001 71.67 9.06 71.67 L 11.91 71.67 L 11.94 73.97 C 11.95 74.5 11.99 75 12.059999999999999 75.49 L 9.059999999999999 75.49 C 6.5699999999999985 75.49 4.299999999999999 74.47 2.6599999999999984 72.83 C 1.02 71.2 0 68.93 0 66.44 L 0 25.09 C 0 22.6 1.02 20.33 2.66 18.689999999999998 C 4.300000000000001 17.049999999999997 6.57 16.029999999999998 9.06 16.029999999999998 L 90.33 16.029999999999998 L 90.33 15.839999999999998 C 90.33 14.859999999999998 90.73 13.959999999999997 91.38 13.309999999999999 L 91.38 13.309999999999999 L 91.38 13.309999999999999 L 91.38 13.309999999999999 C 92.03 12.659999999999998 92.92999999999999 12.259999999999998 93.91 12.259999999999998 L 95.06 12.259999999999998 L 95.06 12.24 L 95.06 12.24 z M 58.41 75.49 L 51.89 75.49 C 52.2 75.14999999999999 52.53 74.80999999999999 52.87 74.47 L 52.86 74.46 C 53.81 73.57 54.53 72.63 55.05 71.66999999999999 L 58.029999999999994 71.66999999999999 C 57.85 72.88 57.96 74.18 58.41 75.49 L 58.41 75.49 z M 12.26 25.75 L 20.009999999999998 25.75 C 21.069999999999997 25.75 21.93 26.61 21.93 27.67 L 21.93 34.21 C 21.93 35.27 21.07 36.13 20.009999999999998 36.13 L 12.259999999999998 36.13 C 11.199999999999998 36.13 10.339999999999998 35.27 10.339999999999998 34.21 L 10.339999999999998 27.67 C 10.34 26.61 11.2 25.75 12.26 25.75 L 12.26 25.75 L 12.26 25.75 z M 27.61 25.75 L 35.36 25.75 C 36.42 25.75 37.28 26.61 37.28 27.67 L 37.28 34.21 C 37.28 35.27 36.42 36.13 35.36 36.13 L 27.61 36.13 C 26.55 36.13 25.689999999999998 35.27 25.689999999999998 34.21 L 25.689999999999998 27.67 C 25.69 26.61 26.55 25.75 27.61 25.75 L 27.61 25.75 L 27.61 25.75 z M 42.97 25.75 L 50.72 25.75 C 51.78 25.75 52.64 26.61 52.64 27.67 L 52.64 34.21 C 52.64 35.27 51.78 36.13 50.72 36.13 L 42.97 36.13 C 41.91 36.13 41.05 35.27 41.05 34.21 L 41.05 27.67 C 41.05 26.61 41.91 25.75 42.97 25.75 L 42.97 25.75 L 42.97 25.75 z M 58.33 25.75 L 66.08 25.75 C 67.14 25.75 68 26.61 68 27.67 L 68 34.21 C 68 35.27 67.14 36.13 66.08 36.13 L 58.33 36.13 C 57.269999999999996 36.13 56.41 35.27 56.41 34.21 L 56.41 27.67 C 56.41 26.61 57.26 25.75 58.33 25.75 L 58.33 25.75 L 58.33 25.75 z M 73.69 25.75 L 81.44 25.75 C 82.5 25.75 83.36 26.61 83.36 27.67 L 83.36 34.21 C 83.36 35.27 82.5 36.13 81.44 36.13 L 73.69 36.13 C 72.63 36.13 71.77 35.27 71.77 34.21 L 71.77 27.67 C 71.77 26.61 72.63 25.75 73.69 25.75 L 73.69 25.75 L 73.69 25.75 z M 89.04 25.75 L 96.79 25.75 C 97.85000000000001 25.75 98.71000000000001 26.61 98.71000000000001 27.67 L 98.71000000000001 34.21 C 98.71000000000001 35.27 97.85000000000001 36.13 96.79 36.13 L 89.04 36.13 C 87.98 36.13 87.12 35.27 87.12 34.21 L 87.12 27.67 C 87.13 26.61 87.99 25.75 89.04 25.75 L 89.04 25.75 L 89.04 25.75 z M 104.4 25.75 L 112.15 25.75 C 113.21000000000001 25.75 114.07000000000001 26.61 114.07000000000001 27.67 L 114.07000000000001 34.21 C 114.07000000000001 35.27 113.21000000000001 36.13 112.15 36.13 L 104.4 36.13 C 103.34 36.13 102.48 35.27 102.48 34.21 L 102.48 27.67 C 102.48 26.61 103.34 25.75 104.4 25.75 L 104.4 25.75 L 104.4 25.75 z M 104.4 39.87 L 112.15 39.87 C 113.21000000000001 39.87 114.07000000000001 40.739999999999995 114.07000000000001 41.809999999999995 L 114.07000000000001 62.489999999999995 C 114.07000000000001 63.559999999999995 113.21000000000001 64.42999999999999 112.15 64.42999999999999 L 104.4 64.42999999999999 C 103.34 64.42999999999999 102.48 63.559999999999995 102.48 62.489999999999995 L 102.48 41.81 C 102.48 40.74 103.34 39.87 104.4 39.87 L 104.4 39.87 L 104.4 39.87 z M 12.26 40.04 L 20.009999999999998 40.04 C 21.069999999999997 40.04 21.93 40.9 21.93 41.96 L 21.93 43.2 C 21.27 43.56 20.669999999999998 44.010000000000005 20.15 44.550000000000004 C 19.47 45.25000000000001 18.919999999999998 46.080000000000005 18.549999999999997 47.00000000000001 C 16.679999999999996 47.150000000000006 15.009999999999998 47.980000000000004 13.779999999999998 49.24000000000001 C 13.429999999999998 49.60000000000001 13.109999999999998 50.00000000000001 12.829999999999998 50.43000000000001 L 12.259999999999998 50.43000000000001 C 11.199999999999998 50.43000000000001 10.339999999999998 49.57000000000001 10.339999999999998 48.510000000000005 L 10.339999999999998 41.970000000000006 C 10.34 40.9 11.2 40.04 12.26 40.04 L 12.26 40.04 L 12.26 40.04 z M 42.97 40.04 L 50.72 40.04 C 51.78 40.04 52.64 40.9 52.64 41.96 L 52.64 48.5 C 52.64 49.56 51.78 50.42 50.72 50.42 L 45.98 50.42 L 45.97 49.58 C 45.96 48.559999999999995 45.74 47.6 45.37 46.73 C 44.98 45.82 44.41 45 43.72 44.31999999999999 C 43.019999999999996 43.629999999999995 42.19 43.07999999999999 41.269999999999996 42.709999999999994 C 41.199999999999996 42.67999999999999 41.129999999999995 42.64999999999999 41.05 42.629999999999995 L 41.05 41.949999999999996 C 41.05 40.9 41.91 40.04 42.97 40.04 L 42.97 40.04 L 42.97 40.04 z M 58.33 40.04 L 66.08 40.04 C 67.14 40.04 68 40.9 68 41.96 L 68 48.5 C 68 49.56 67.14 50.42 66.08 50.42 L 58.33 50.42 C 57.269999999999996 50.42 56.41 49.56 56.41 48.5 L 56.41 41.96 C 56.41 40.9 57.26 40.04 58.33 40.04 L 58.33 40.04 L 58.33 40.04 z M 73.69 40.04 L 81.44 40.04 C 82.5 40.04 83.36 40.9 83.36 41.96 L 83.36 43.27 C 82.98 43.21 82.59 43.17 82.19 43.17 C 81.17 43.160000000000004 80.21 43.35 79.33 43.7 C 78.41 44.07 77.58 44.620000000000005 76.87 45.31 C 76.25 45.92 75.73 46.64 75.35000000000001 47.45 C 74.45 47.480000000000004 73.60000000000001 47.660000000000004 72.81 47.980000000000004 C 72.45 48.13 72.10000000000001 48.300000000000004 71.77 48.50000000000001 L 71.77 41.980000000000004 C 71.77 40.9 72.63 40.04 73.69 40.04 L 73.69 40.04 L 73.69 40.04 z M 89.04 40.04 L 96.79 40.04 C 97.85000000000001 40.04 98.71000000000001 40.9 98.71000000000001 41.96 L 98.71000000000001 48.5 C 98.71000000000001 49.56 97.85000000000001 50.42 96.79 50.42 L 94.49000000000001 50.42 C 94.32000000000001 50.2 94.13000000000001 49.99 93.94000000000001 49.79 C 93.26 49.1 92.44000000000001 48.53 91.53000000000002 48.14 C 90.73000000000002 47.8 89.85000000000001 47.59 88.92000000000002 47.55 C 88.56000000000002 46.75 88.06000000000002 46.029999999999994 87.45000000000002 45.41 C 87.34000000000002 45.3 87.24000000000002 45.199999999999996 87.12000000000002 45.099999999999994 L 87.12000000000002 41.96999999999999 C 87.13 40.9 87.99 40.04 89.04 40.04 L 89.04 40.04 L 89.04 40.04 z M 11.8 64.5 C 10.96 64.29 10.34 63.54 10.34 62.63 L 10.34 56.1 C 10.34 55.25 10.89 54.53 11.65 54.28 C 11.65 54.370000000000005 11.65 54.45 11.65 54.54 C 11.700000000000001 58.62 11.75 61.48 11.8 64.35 L 11.8 64.5 L 11.8 64.5 z M 46.04 54.18 L 66.09 54.18 C 67.14 54.18 67.99000000000001 55.04 67.99000000000001 56.1 L 67.99000000000001 62.64 C 67.99000000000001 63.7 67.14000000000001 64.56 66.09 64.56 L 55.54 64.56 C 55.44 64.32000000000001 55.33 64.08 55.199999999999996 63.86 C 54.919999999999995 63.339999999999996 54.56999999999999 62.85 54.17999999999999 62.41 L 54.10999999999999 62.33 C 53.669999999999995 61.85 53.169999999999995 61.44 52.61999999999999 61.1 C 52.09999999999999 60.77 51.50999999999999 60.51 50.87999999999999 60.31 L 50.87999999999999 60.31 L 50.86999999999999 60.31 C 49.42999999999999 59.870000000000005 47.82999999999999 59.86 46.19999999999999 60.400000000000006 L 46.12999999999999 60.42000000000001 L 46.04 54.18 L 46.04 54.18 z M 75.08 88.78 L 75.28999999999999 87.19 L 75.28999999999999 87.19 C 71.64999999999999 84.11 66.3 77.5 64.92999999999999 76.09 C 64.89999999999999 76.06 64.86999999999999 76.03 64.83999999999999 76 C 63.78999999999999 75.05 62.83999999999999 73.6 63.20999999999999 72.12 C 63.30999999999999 71.73 63.499999999999986 71.38000000000001 63.749999999999986 71.11 C 63.999999999999986 70.84 64.30999999999999 70.64 64.67999999999999 70.53 C 65.58 70.26 66.77 70.56 67.96 71.78 C 68.24 72.06 68.96 72.8 69.66 73.48 C 70.33 74.12 71.00999999999999 74.74000000000001 71.46 74.99000000000001 C 71.61 75.09 71.78999999999999 75.16000000000001 71.97999999999999 75.16000000000001 L 71.97999999999999 75.16000000000001 L 72.72999999999999 74.81000000000002 L 72.99999999999999 71.09000000000002 C 73.08999999999999 64.12000000000002 73.21999999999998 61.84000000000002 73.29999999999998 54.85000000000002 C 73.30999999999999 54.230000000000025 73.56999999999998 53.67000000000002 73.98999999999998 53.26000000000002 C 74.40999999999998 52.85000000000002 74.97999999999998 52.61000000000002 75.59999999999998 52.62000000000002 C 76.21999999999998 52.63000000000002 76.78999999999998 52.89000000000002 77.18999999999998 53.30000000000002 C 77.58999999999999 53.710000000000015 77.84999999999998 54.29000000000002 77.83999999999999 54.91000000000002 L 77.67999999999999 68.48000000000002 L 79.63999999999999 68.50000000000001 L 79.85999999999999 50.570000000000014 C 79.86999999999999 49.95000000000002 80.12999999999998 49.390000000000015 80.53999999999999 48.98000000000001 C 80.96 48.570000000000014 81.52999999999999 48.320000000000014 82.14999999999999 48.33000000000001 C 82.77 48.34000000000001 83.33999999999999 48.600000000000016 83.74 49.02000000000001 C 84.14999999999999 49.44000000000001 84.39999999999999 50.01000000000001 84.39 50.63000000000001 L 84.18 68.55000000000001 L 86.18 68.57000000000001 L 86.34 54.96000000000001 C 86.35000000000001 54.34000000000001 86.61 53.77000000000001 87.03 53.370000000000005 C 87.44 52.96000000000001 88.01 52.720000000000006 88.63 52.730000000000004 C 89.25 52.74 89.82 53.00000000000001 90.22 53.42 C 90.63 53.84 90.88 54.410000000000004 90.87 55.03 L 90.7 68.64 L 92.59 68.66 L 92.7 59.66 C 92.71000000000001 59.04 92.97 58.47 93.38000000000001 58.06999999999999 C 93.79000000000002 57.66999999999999 94.37 57.41 94.99000000000001 57.419999999999995 C 95.61000000000001 57.42999999999999 96.18 57.69 96.58000000000001 58.10999999999999 C 96.99000000000001 58.529999999999994 97.23000000000002 59.099999999999994 97.22000000000001 59.71999999999999 L 97.11000000000001 68.72 C 97.05000000000001 73.74 96.99000000000001 74.17999999999999 96.93 79.2 C 96.91000000000001 81.3 94.71000000000001 85.03 93.76 87.06 C 93.68 87.22 93.66000000000001 87.4 93.68 87.57000000000001 L 93.68 87.57000000000001 L 93.86000000000001 88.81 L 75.08 88.81 L 75.08 88.78 z M 39 83.54 L 38.79 81.95 L 38.79 81.95 C 42.43 78.87 47.78 72.26 49.14 70.85000000000001 C 49.17 70.82000000000001 49.2 70.79 49.230000000000004 70.76 C 50.28 69.81 51.230000000000004 68.36 50.86000000000001 66.88000000000001 C 50.760000000000005 66.49000000000001 50.57000000000001 66.14000000000001 50.32000000000001 65.87 C 50.07000000000001 65.59 49.760000000000005 65.4 49.39000000000001 65.29 C 48.49000000000001 65.01 47.30000000000001 65.32000000000001 46.11000000000001 66.54 C 45.84 66.82000000000001 45.11000000000001 67.56 44.410000000000004 68.24000000000001 C 43.74 68.88000000000001 43.06 69.50000000000001 42.61000000000001 69.76 C 42.46000000000001 69.86 42.28000000000001 69.92 42.09 69.92 L 42.09 69.92 L 41.34 69.57000000000001 L 41.07 65.85000000000001 C 40.98 58.88000000000001 40.85 56.61000000000001 40.77 49.610000000000014 C 40.760000000000005 48.990000000000016 40.5 48.420000000000016 40.080000000000005 48.02000000000001 C 39.660000000000004 47.610000000000014 39.09 47.37000000000001 38.470000000000006 47.38000000000001 C 37.85000000000001 47.39000000000001 37.28000000000001 47.65000000000001 36.88 48.06000000000001 C 36.470000000000006 48.48000000000001 36.220000000000006 49.05000000000001 36.230000000000004 49.67000000000001 L 36.400000000000006 63.23000000000001 L 34.45 63.250000000000014 L 34.230000000000004 45.320000000000014 C 34.220000000000006 44.70000000000002 33.96 44.13000000000002 33.550000000000004 43.73000000000001 C 33.13 43.320000000000014 32.56 43.070000000000014 31.940000000000005 43.08000000000001 C 31.320000000000004 43.09000000000001 30.750000000000004 43.350000000000016 30.350000000000005 43.77000000000001 C 29.940000000000005 44.19000000000001 29.690000000000005 44.76000000000001 29.700000000000006 45.38000000000001 L 29.910000000000007 63.30000000000001 L 27.910000000000007 63.320000000000014 L 27.74 49.7 C 27.729999999999997 49.080000000000005 27.47 48.52 27.049999999999997 48.11 C 26.639999999999997 47.7 26.069999999999997 47.46 25.449999999999996 47.47 C 24.829999999999995 47.48 24.259999999999994 47.74 23.859999999999996 48.16 C 23.449999999999996 48.58 23.199999999999996 49.15 23.209999999999997 49.769999999999996 L 23.38 63.379999999999995 L 21.49 63.4 L 21.38 54.4 C 21.369999999999997 53.78 21.11 53.21 20.7 52.809999999999995 C 20.279999999999998 52.4 19.71 52.15 19.09 52.16 C 18.47 52.169999999999995 17.9 52.43 17.5 52.849999999999994 C 17.09 53.269999999999996 16.85 53.839999999999996 16.86 54.459999999999994 L 16.97 63.459999999999994 C 17.029999999999998 68.47999999999999 17.09 68.91999999999999 17.15 73.94 C 17.169999999999998 76.03999999999999 19.369999999999997 79.77 20.32 81.8 C 20.4 81.97 20.42 82.14999999999999 20.4 82.31 L 20.4 82.31 L 20.22 83.55 L 39 83.55 L 39 83.54 z" stroke-linecap="round" />
</g>
<g transform="matrix(0.5796801775 0 0 0.5796801775 125.9116444015 25)" id="i7wlpcYjqsPDyIOUYcAtE"  >
<path style="stroke: none; stroke-width: 1; stroke-dasharray: none; stroke-linecap: butt; stroke-dashoffset: 0; stroke-linejoin: miter; stroke-miterlimit: 4; fill: rgb(0,0,0); fill-rule: nonzero; opacity: 1;" vector-effect="non-scaling-stroke"  transform=" translate(0, 0)" d="M 28.45 -25.558 L -28.45 -25.558 C -33.521 -25.558 -37.647 -21.432 -37.647 -16.361 L -37.647 16.361 C -37.647 21.432000000000002 -33.521 25.558 -28.45 25.558 L 28.45 25.558 C 33.521 25.558 37.647 21.432 37.647 16.361 L 37.647 -16.359999999999996 C 37.647999999999996 -21.431999999999995 33.522 -25.557999999999996 28.45 -25.557999999999996 z M 23.956 -19.558 L 0 -4.1240000000000006 L -23.956 -19.558 z M 28.45 19.559 L -28.45 19.559 C -30.213 19.559 -31.647 18.124000000000002 -31.647 16.362000000000002 L -31.647 -16.189999999999998 L -1.850999999999999 2.9700000000000024 C -1.810999999999999 2.9950000000000023 -1.7679999999999991 3.0120000000000022 -1.726999999999999 3.0350000000000024 C -1.683999999999999 3.0590000000000024 -1.639999999999999 3.0820000000000025 -1.595999999999999 3.1040000000000023 C -1.3649999999999989 3.2230000000000025 -1.126999999999999 3.319000000000002 -0.883999999999999 3.3820000000000023 C -0.858999999999999 3.3890000000000025 -0.833999999999999 3.392000000000002 -0.808999999999999 3.3980000000000024 C -0.541999999999999 3.4610000000000025 -0.271999999999999 3.500000000000002 -0.0019999999999990026 3.500000000000002 C -0.0009999999999990026 3.500000000000002 9.97465998686664e-16 3.500000000000002 9.97465998686664e-16 3.500000000000002 C 0.0020000000000009975 3.500000000000002 0.0030000000000009975 3.500000000000002 0.0040000000000009975 3.500000000000002 C 0.274000000000001 3.500000000000002 0.544000000000001 3.4620000000000024 0.811000000000001 3.3980000000000024 C 0.8360000000000011 3.3920000000000026 0.8610000000000011 3.3890000000000025 0.886000000000001 3.3820000000000023 C 1.129000000000001 3.319000000000002 1.366000000000001 3.2230000000000025 1.598000000000001 3.1040000000000023 C 1.642000000000001 3.0820000000000025 1.686000000000001 3.0590000000000024 1.729000000000001 3.0350000000000024 C 1.770000000000001 3.0120000000000022 1.813000000000001 2.9950000000000023 1.853000000000001 2.9700000000000024 L 31.649 -16.189999999999998 L 31.649 16.361000000000004 C 31.648 18.124000000000002 30.213 19.559000000000005 28.450000000000003 19.559000000000005 z" stroke-linecap="round" />
</g>
</svg>